<?xml version="1.0" encoding="utf-8"?>
<!-- Svg Vector Icons : http://www.onlinewebfonts.com/icon -->
<!DOCTYPE svg PUBLIC "-//W3C//DTD SVG 1.1//EN" "http://www.w3.org/Graphics/SVG/1.1/DTD/svg11.dtd">
<svg version="1.1" xmlns="http://www.w3.org/2000/svg" xmlns:xlink="http://www.w3.org/1999/xlink" x="0px" y="0px" viewBox="0 0 1000 1000" enable-background="new 0 0 1000 1000" xml:space="preserve">
<metadata> Svg Vector Icons : http://www.onlinewebfonts.com/icon </metadata>
<g><path d="M653.7,555.6c-45.7,24.6-98.1,38.6-153.7,38.6c-55.6,0-107.9-14-153.7-38.6c-138.7,49.7-235.8,164.5-235.8,298.3c0,179.3,174.4,129.8,389.5,129.8c215.1,0,389.5,49.4,389.5-129.8C889.5,720.1,792.4,605.3,653.7,555.6z M500,529.3c143.4,0,259.7-116.3,259.7-259.7C759.7,126.3,643.4,10,500,10c-143.4,0-259.7,116.3-259.7,259.7C240.3,413.1,356.6,529.3,500,529.3z"/></g>
</svg>