<?xml version="1.0" encoding="utf-8"?>
<!-- Svg Vector Icons : http://www.onlinewebfonts.com/icon -->
<!DOCTYPE svg PUBLIC "-//W3C//DTD SVG 1.1//EN" "http://www.w3.org/Graphics/SVG/1.1/DTD/svg11.dtd">
<svg version="1.1" xmlns="http://www.w3.org/2000/svg" xmlns:xlink="http://www.w3.org/1999/xlink" x="0px" y="0px" viewBox="0 0 1000 1000" enable-background="new 0 0 1000 1000" xml:space="preserve">
<metadata> Svg Vector Icons : http://www.onlinewebfonts.com/icon </metadata>
<g><g><path d="M926.9,266.4c-42,0-461.6,0-535.1,0c-73.5,0-213.5,180.7-213.5,180.7S98,460.6,45.6,492.1c-52.5,31.5-31.4,157.4-31.4,157.4h81.3c0-52.2,42.3-94.5,94.4-94.5c52.2,0,94.5,42.3,94.5,94.5h389.6c0-52.2,42.3-94.5,94.4-94.5c52.3,0,94.5,42.3,94.5,94.5H990V418.6C989.9,418.6,968.9,266.4,926.9,266.4z M87.8,537.3H44.3v-27.6h43.5L87.8,537.3L87.8,537.3z M492.9,414H260.7c0,0,82.7-104.9,122-104.9c39.3,0,110.2,0,110.2,0L492.9,414L492.9,414z M722.4,414H540.1V309.1h182.3V414z M772.3,414l0-104.9h141.6L937.5,414H772.3z M963.5,592.3h-14.7V418.6h14.7V592.3z M187.7,565.4c-46.4,0-84.1,37.6-84.1,84.1c0,46.5,37.7,84.1,84.1,84.1c46.5,0,84.1-37.6,84.1-84.1C271.7,603,234.1,565.4,187.7,565.4z M187.7,686.3c-20.3,0-36.9-16.6-36.9-36.9c0-20.4,16.6-36.9,36.9-36.9c20.4,0,36.9,16.5,36.9,36.9S208,686.3,187.7,686.3z M765.6,565.4c-46.4,0-84.1,37.6-84.1,84.1c0,46.5,37.7,84.1,84.1,84.1c46.5,0,84.1-37.6,84.1-84.1C849.7,603,812.1,565.4,765.6,565.4z M765.7,686.3c-20.4,0-36.9-16.6-36.9-36.9c0-20.4,16.5-36.9,36.9-36.9c20.3,0,36.9,16.5,36.9,36.9C802.5,669.8,786,686.3,765.7,686.3z M290.3,657.3H679v27.5H290.3V657.3z"/></g><g></g><g></g><g></g><g></g><g></g><g></g><g></g><g></g><g></g><g></g><g></g><g></g><g></g><g></g><g></g></g>
</svg>