<?xml version="1.0" encoding="utf-8"?>
<!-- Svg Vector Icons : http://www.onlinewebfonts.com/icon -->
<!DOCTYPE svg PUBLIC "-//W3C//DTD SVG 1.1//EN" "http://www.w3.org/Graphics/SVG/1.1/DTD/svg11.dtd">
<svg version="1.1" xmlns="http://www.w3.org/2000/svg" xmlns:xlink="http://www.w3.org/1999/xlink" x="0px" y="0px" viewBox="0 0 1000 1000" enable-background="new 0 0 1000 1000" xml:space="preserve">
<metadata> Svg Vector Icons : http://www.onlinewebfonts.com/icon </metadata>
<g><g><path d="M989.8,328c-8.9-66.7-213.6-60.5-204.3-25.1c9.3,35.4-69.4,62.7-69.4,62.7l-113.1,22c-68.8-54.7-99.9-71.8-123.8-87.1c-92.7-59.4-189.8,63-189.8,63s-90-11,16.6-117.5C-64.8,436.4,111.7,468.1,111.7,468.1h104.2L199.2,495c-16.5-7.3-34.8-11.4-54.1-11.4C70.5,483.6,10,544.2,10,618.8C10,693.4,70.5,754,145.2,754c74.6,0,135.2-60.6,135.2-135.2c0-41.9-19.1-79.3-49-104l14.3-23.2l144.1,160.6l0,0h12.5h261.4H696C710.9,710.6,763.8,754,826.8,754c74.6,0,135.1-60.6,135.1-135.2c0-74.6-60.4-135.2-135.1-135.2c-68.2,0-124.4,50.6-133.7,116.2h-1.3c0,0-11.8-43.4-32.8-97.2C729.2,479.2,997.5,385.9,989.8,328z M145.2,703.7c-46.9,0-84.9-38.1-84.9-85s38.1-84.9,84.9-84.9c9.6,0,18.7,1.6,27.3,4.6l-29.3,47.5c-0.2,0.3-0.6,0.6-0.8,0.9L130.2,607c-0.1,0.2,0,0.3-0.1,0.4l-0.9,1.4l0.3,0.2c-3.9,8.5-1.2,18.9,7.1,23.9c8.2,5,18.5,2.7,24.3-4.6l0.4,0.3l1.1-1.8c0.1-0.1,0.2-0.2,0.2-0.2l5.5-9l36.6-59.5c15.8,15.4,25.5,36.9,25.5,60.6C230.1,665.6,192,703.7,145.2,703.7z M826.9,533.8c46.8,0,84.9,38.1,84.9,84.9c0,46.9-38.2,85-84.9,85c-35,0-65.2-21.4-78.1-51.6h103.1v-0.4h2.4c14.4,0.2,26.2-11.1,26.3-25.5c0.3-14.3-11.2-26.1-25.5-26.3l-32.3-0.4c-1.7-0.1-3.3,0.1-4.9,0.4h-73.7C752.7,562.1,786.5,533.8,826.9,533.8z"/></g><g></g><g></g><g></g><g></g><g></g><g></g><g></g><g></g><g></g><g></g><g></g><g></g><g></g><g></g><g></g></g>
</svg>