<?xml version="1.0" encoding="utf-8"?>
<!-- Svg Vector Icons : http://www.onlinewebfonts.com/icon -->
<!DOCTYPE svg PUBLIC "-//W3C//DTD SVG 1.1//EN" "http://www.w3.org/Graphics/SVG/1.1/DTD/svg11.dtd">
<svg version="1.1" xmlns="http://www.w3.org/2000/svg" xmlns:xlink="http://www.w3.org/1999/xlink" x="0px" y="0px" viewBox="0 0 1000 1000" enable-background="new 0 0 1000 1000" xml:space="preserve">
<metadata> Svg Vector Icons : http://www.onlinewebfonts.com/icon </metadata>
<g><path d="M224,575.3c-50.3,0-91.1,40.8-91.1,91.1c0,50.3,40.8,91.1,91.1,91.1c50.3,0,91.1-40.8,91.1-91.1C315,616.1,274.3,575.3,224,575.3z M224,727.7c-33.9,0-61.3-27.5-61.3-61.3c0-33.9,27.5-61.3,61.3-61.3s61.3,27.5,61.3,61.3C285.3,700.3,257.8,727.7,224,727.7z"/><path d="M817.5,575.3c-50.3,0-91.1,40.8-91.1,91.1c0,50.3,40.8,91.1,91.1,91.1c50.3,0,91.1-40.8,91.1-91.1C908.6,616.1,867.8,575.3,817.5,575.3z M817.5,727.7c-33.9,0-61.3-27.5-61.3-61.3c0-33.9,27.5-61.3,61.3-61.3c33.9,0,61.3,27.5,61.3,61.3C878.8,700.3,851.4,727.7,817.5,727.7z"/><path d="M988.3,501.4c-10.7-30.1-32.6-57.5-72.6-76C833.3,332.1,711.3,242,503.6,242.5c-28,0.1-77,0.5-101.6,20.3c-106.1,84.7-119,154.7-183.6,173.9c-144.1,43-179.7,23.8-198,75.3C-23.4,675.6,83.5,692.6,117,677.9c-3.5-116.8,113.6-146,170.2-106.5c57.4,40.1,51.9,106.5,51.9,106.5h363.1c0,0-2.9-83.1,68.9-115.2c48.2-21.5,151.5-8.3,158.2,116c44.7-12.4,56.7-23.5,60.4-62.7C989.9,586.9,990.8,537.5,988.3,501.4z M90.9,556.2c-25.1,36.9-45.7,30-59.2,29.5c-11.1-31-0.8-50.3-0.8-50.3h60C93.5,543.1,94.4,551,90.9,556.2z M562.4,435.9H302c-7.9-7.4-1.6-18.6,0-22.1c1.6-3.5,106.4-106.9,130-130.5c23.6-23.6,130.4,0.8,130.4,0.8L562.4,435.9L562.4,435.9z M812.8,434.2c-13.3,0-180.7,1.7-180.7,1.7l-5.9-8.4V295c0,0,98.3,13.5,195.9,111.3C829.4,413.7,826.1,434.2,812.8,434.2z M980.8,553.6h-17.7c0,0-28.2-7.2-35.5-46.1h53.2V553.6z"/></g>
</svg>